<svg xmlns="http://www.w3.org/2000/svg" width="220" height="220" viewBox="0 0 220 220">
  <defs>
    <pattern id="doodle" x="0" y="0" width="220" height="220" patternUnits="userSpaceOnUse">
      <g fill="none" stroke="rgba(255,255,255,0.045)" stroke-width="1.3" stroke-linecap="round" stroke-linejoin="round">
        
        <circle cx="22" cy="18" r="6"></circle>
        <path d="M58 28 l8 0 M62 24 l0 8"></path>
        <path d="M100 14 q6 -8 12 0 t12 0"></path>
        <circle cx="160" cy="22" r="3" fill="rgba(255,255,255,0.045)"></circle>
        <path d="M188 16 l8 8 M196 16 l-8 8"></path>
        <path d="M14 58 q10 -6 20 0 t20 0"></path>
        <rect x="68" y="52" width="14" height="14" rx="3"></rect>
        <path d="M104 60 l6 -8 6 8 -6 8 z"></path>
        <circle cx="148" cy="64" r="8"></circle>
        <path d="M178 56 l16 0 M186 50 l0 16"></path>
        <path d="M22 100 l10 10 -10 10 -10 -10 z"></path>
        <path d="M58 96 q12 0 12 12 q0 12 -12 12"></path>
        <circle cx="104" cy="106" r="4" fill="rgba(255,255,255,0.045)"></circle>
        <path d="M132 100 l8 12 8 -12"></path>
        <path d="M168 100 l16 12"></path>
        <path d="M14 148 q8 -8 16 0 t16 0 t16 0"></path>
        <rect x="72" y="142" width="18" height="12" rx="6"></rect>
        <path d="M110 156 l6 -14 6 14 -6 -4 z"></path>
        <circle cx="148" cy="150" r="6"></circle>
        <path d="M180 142 l12 12 M180 154 l12 -12"></path>
        <path d="M28 192 l10 -10 10 10"></path>
        <circle cx="80" cy="190" r="8"></circle>
        <path d="M118 184 l0 16 M110 192 l16 0"></path>
        <path d="M150 188 q6 -8 12 0 t12 0"></path>
        <circle cx="198" cy="194" r="5"></circle>
      </g>
    </pattern>
  </defs>
  <rect width="220" height="220" fill="url(#doodle)"></rect>
</svg>